{"title":"The.Lincoln.Lawyer.2011.720p.BRRip.x264.AC3.dxva-HDLiTE","uid":6480134,"size":2703456190,"categoryP":"video","categoryS":"hd___movies","magnet":"?xt=urn:btih:7d4aa3326633d049ab4d41616d1b0fd9bd76a446&amp;dn=The.Lincoln.Lawyer.2011.720p.BRRip.x264.AC3.dxva-HDLiTE&amp;tr=udp%3A%2F%2Ftracker.openbittorrent.com%3A80&amp;tr=udp%3A%2F%2Fopen.demonii.com%3A1337&amp;tr=udp%3A%2F%2Ftracker.coppersurfer.tk%3A6969&amp;tr=udp%3A%2F%2Fexodus.desync.com%3A6969","seeders":0,"leechers":0,"uploader":"Test_Verify","files":4,"time":1308482743,"description":"ooooo   ooooo oooooooooo.   ooooo         o8o  ooooooooooooo oooooooooooo\n`888'   `888' `888'   `Y8b  `888'         `&quot;'  8'   888   `8 `888'     `8\n888     888   888      888  888         oooo       888       888\n888ooooo888   888      888  888         `888       888       888oooo8\n888     888   888      888  888          888       888       888    &quot;\n888     888   888     d88'  888       o  888       888       888       o\no888o   o888o o888bood8P'   o888ooooood8 o888o     o888o     o888ooooood8\n\nPRESENTS:\n\nThe.Lincoln.Lawyer.2011.BRRip.x264.AC3.dxva-HDLiTE\n\nEncoded By                       : Lifechanger\nSource                           : BluRay.x264.1080p.DTS-MySilu\nIMDB                             : http://www.imdb.com/title/tt1189340/\n\nGeneral\nFormat                           : Matroska\nFile size                        : 2.50 GiB\nDuration                         : 1h 58mn\nOverall bit rate                 : 3 017 Kbps\n\nVideo\nID                               : 1\nFormat                           : AVC\nFormat/Info                      : Advanced Video Codec\nFormat profile                   : &lt;a class=&quot;__cf_email__&quot; href=&quot;/cdn-cgi/l/email-protection&quot; data-cfemail=&quot;460e2f212e060a726877&quot;&gt;[email&amp;#160;protected]&lt;/a&gt;&lt;script cf-hash='f9e31' type=&quot;text/javascript&quot;&gt;\n/* &lt;![CDATA[ */!function(){try{var t=&quot;currentScript&quot;in document?document.currentScript:function(){for(var t=document.getElementsByTagName(&quot;script&quot;),e=t.length;e--;)if(t[e].getAttribute(&quot;cf-hash&quot;))return t[e]}();if(t&amp;&amp;t.previousSibling){var e,r,n,i,c=t.previousSibling,a=c.getAttribute(&quot;data-cfemail&quot;);if(a){for(e=&quot;&quot;,r=parseInt(a.substr(0,2),16),n=2;a.length-n;n+=2)i=parseInt(a.substr(n,2),16)^r,e+=String.fromCharCode(i);e=document.createTextNode(e),c.parentNode.replaceChild(e,c)}}}catch(u){}}();/* ]]&gt; */&lt;/script&gt;\nFormat settings, CABAC           : Yes\nFormat settings, ReFrames        : 5 frames\nCodec ID                         : V_MPEG4/ISO/AVC\nDuration                         : 1h 58mn\nBit rate                         : 2 569 Kbps\nWidth                            : 1 280 pixels\nHeight                           : 544 pixels\nDisplay aspect ratio             : 2.35:1\nFrame rate                       : 23.976 fps\nColor space                      : YUV\nChroma subsampling               : 4:2:0\nBit depth                        : 8 bits\nScan type                        : Progressive\nBits/(Pixel*Frame)               : 0.154\nStream size                      : 2.08 GiB (83%)\nWriting library                  : x264 core 114 r1913 5fd3dce\nLanguage                         : English\n\nAudio\nID                               : 2\nFormat                           : AC-3\nFormat/Info                      : Audio Coding 3\nMode extension                   : CM (complete main)\nCodec ID                         : A_AC3\nDuration                         : 1h 58mn\nBit rate mode                    : Constant\nBit rate                         : 448 Kbps\nChannel(s)                       : 6 channels\nChannel positions                : Front: L C R, Side: L R, LFE\nSampling rate                    : 48.0 KHz\nBit depth                        : 16 bits\nCompression mode                 : Lossy\nStream size                      : 380 MiB (15%)\nLanguage                         : English\n\nSubs         : Ro","torrent":{"xt":"urn:btih:7d4aa3326633d049ab4d41616d1b0fd9bd76a446","amp;dn":"The.Lincoln.Lawyer.2011.720p.BRRip.x264.AC3.dxva-HDLiTE","amp;tr":["udp%3A%2F%2Ftracker.openbittorrent.com%3A80","udp%3A%2F%2Fopen.demonii.com%3A1337","udp%3A%2F%2Ftracker.coppersurfer.tk%3A6969","udp%3A%2F%2Fexodus.desync.com%3A6969"],"infoHash":"7d4aa3326633d049ab4d41616d1b0fd9bd76a446","infoHashBuffer":{"type":"Buffer","data":[125,74,163,50,102,51,208,73,171,77,65,97,109,27,15,217,189,118,164,70]},"announce":[],"urlList":[]}}